# Blender 4.5.2 LTS
# www.blender.org
mtllib head.mtl
o Cube
v -0.283394 -1.038427 -1.000000
v -0.246581 0.113982 0.912826
v -0.283394 -1.038427 1.000000
v -0.246581 0.113982 -0.912826
v 0.774592 0.211460 -0.542392
v 0.414294 0.178588 -0.865923
v 0.352184 -1.619799 -0.734622
v 0.774592 -1.619799 -0.542392
v 0.414294 0.178588 0.865923
v 0.774592 0.211460 0.542392
v 0.774592 -1.619799 0.542392
v 0.352184 -1.619799 0.734622
v -0.644785 0.168174 -0.871455
v -1.000000 0.233050 -0.561901
v -1.000000 -1.000000 -0.561901
v -0.644785 -1.013585 -0.871455
v -1.000000 0.233050 0.561901
v -0.644785 0.168174 0.871455
v -0.644785 -1.013585 0.871455
v -1.000000 -1.000000 0.561901
v 0.227589 -1.804640 0.001712
v 0.774592 -1.804640 0.000929
v 0.774592 0.294565 0.000929
v -0.264987 -0.193252 -1.000000
v -0.264987 -0.193252 1.000000
v 0.774592 -0.483938 -0.542392
v 0.383239 -0.483938 -0.878638
v 0.383239 -0.483938 0.878638
v 0.774592 -0.483938 0.542392
v -0.644785 -0.180831 0.871455
v -1.000000 -0.174038 0.561901
v -0.644785 -0.180831 -0.871455
v -1.000000 -0.174038 -0.561901
v 0.774592 -0.576358 0.000929
v -0.644785 0.558982 0.000000
v 0.414294 0.558982 0.000000
v -0.246581 0.558982 0.000000
v -1.000000 0.326843 0.000000
v -0.644785 0.475877 0.557996
v -0.246581 0.475877 0.553618
v 0.414294 0.475877 0.546353
v 0.414294 0.475877 -0.546353
v -0.644785 0.475877 -0.557996
v -0.246581 0.475877 -0.553618
vn -0.2824 0.9593 -0.0000
vn -0.2539 0.8721 -0.4183
vn -0.8272 0.3921 -0.4025
vn -0.8611 0.5084 -0.0000
vn -0.3956 -0.9184 0.0006
vn -0.3371 -0.8929 -0.2986
vn 0.0538 -0.9607 -0.2723
vn 0.0562 -0.9984 0.0003
vn 0.8957 -0.0192 -0.4442
vn 0.9019 -0.0311 -0.4308
vn 0.4434 -0.0669 -0.8938
vn 0.4092 -0.0234 -0.9121
vn 0.4092 -0.0234 0.9121
vn 0.4434 -0.0669 0.8938
vn 0.9020 -0.0311 0.4307
vn 0.8957 -0.0192 0.4442
vn -0.0457 0.0495 -0.9977
vn -0.0126 0.4135 -0.9104
vn 0.3445 0.3816 -0.8578
vn 1.0000 -0.0000 -0.0000
vn 0.8745 0.4850 0.0002
vn 0.8404 0.3739 0.3922
vn 0.3034 0.9528 -0.0000
vn 0.2779 0.8702 -0.4068
vn 0.0028 0.8947 -0.4467
vn 0.0008 1.0000 -0.0000
vn -0.9102 -0.0000 -0.4141
vn 0.3445 0.3816 0.8578
vn -0.0126 0.4135 0.9104
vn -0.0457 0.0495 0.9977
vn -0.4730 0.0362 0.8803
vn -0.3415 0.3884 0.8558
vn -0.8272 0.3921 0.4025
vn -0.9102 -0.0000 0.4141
vn -0.4730 0.0362 -0.8803
vn -0.4965 0.0019 -0.8680
vn -0.9085 -0.0000 -0.4179
vn -0.3415 0.3884 -0.8558
vn 0.8405 0.3739 -0.3922
vn -0.4439 -0.8933 -0.0705
vn -0.4441 -0.8932 0.0706
vn 0.2778 0.8702 0.4069
vn -0.3364 -0.8927 0.2998
vn 0.0544 -0.9604 0.2733
vn -0.0592 -0.9982 -0.0000
vn -0.2539 0.8721 0.4183
vn 0.0028 0.8947 0.4467
vn 0.0109 -0.0459 0.9989
vn -0.4965 0.0019 0.8680
vn 0.0109 -0.0459 -0.9989
vn -0.9085 -0.0000 0.4179
vn -0.0382 -0.9993 -0.0000
vt 0.926142 0.000357
vt 0.928184 0.101120
vt 0.853365 0.118850
vt 0.845597 0.011296
vt 0.844882 0.089728
vt 0.710824 0.131544
vt 0.706533 0.046941
vt 0.800361 0.000357
vt 0.260670 0.146922
vt 0.463582 0.104346
vt 0.480978 0.187252
vt 0.278518 0.239396
vt 0.684143 0.239107
vt 0.481693 0.186919
vt 0.499107 0.104017
vt 0.702010 0.146637
vt 0.739783 0.683400
vt 0.681621 0.678240
vt 0.671684 0.557139
vt 0.792633 0.562930
vt 0.159329 0.838071
vt 0.000357 0.838071
vt 0.015527 0.739237
vt 0.142459 0.739237
vt 0.653043 0.767517
vt 0.751458 0.774218
vt 0.756786 0.891988
vt 0.650515 0.891988
vt 0.238979 0.364571
vt 0.164673 0.364571
vt 0.256100 0.262006
vt 0.142476 0.645057
vt 0.021527 0.650847
vt 0.031464 0.529747
vt 0.089626 0.524586
vt 0.163433 0.073438
vt 0.227137 0.073438
vt 0.238979 0.159441
vt 0.164673 0.159441
vt 0.001597 0.073546
vt 0.153602 0.073546
vt 0.151122 0.159549
vt 0.000357 0.159549
vt 0.163433 0.450575
vt 0.227137 0.450575
vt 0.217246 0.523651
vt 0.158855 0.523655
vt 0.668838 0.684115
vt 0.771473 0.696911
vt 0.481693 0.369577
vt 0.649800 0.552421
vt 0.481693 0.734641
vt 0.158855 0.000357
vt 0.217246 0.000361
vt 0.452811 0.859829
vt 0.551230 0.853128
vt 0.571245 0.930432
vt 0.468946 0.943167
vt 0.706533 0.296008
vt 0.792617 0.468750
vt 0.665684 0.468750
vt 0.650515 0.369577
vt 0.809486 0.369577
vt 0.948038 0.665119
vt 0.810201 0.459049
vt 0.943698 0.500656
vt 0.854517 0.369577
vt 0.948038 0.416056
vt 0.321700 0.711462
vt 0.321700 0.393325
vt 0.387821 0.369861
vt 0.387821 0.734925
vt 0.256814 0.735640
vt 0.330315 0.735640
vt 0.328273 0.836403
vt 0.256814 0.838972
vt 0.256814 0.046398
vt 0.476237 0.000357
vt 0.158140 0.520697
vt 0.003865 0.523871
vt 0.001597 0.450683
vt 0.153602 0.450683
vt 0.003865 0.000357
vt 0.158140 0.003532
vt 0.000357 0.364679
vt 0.151122 0.364679
vt 0.705818 0.368862
vt 0.555511 0.333949
vt 0.486405 0.000357
vt 0.705818 0.046446
vt 0.407129 0.334266
vt 0.256814 0.369146
vt 0.256814 0.449828
vt 0.256814 0.654958
vt 0.992059 0.197618
vt 0.919693 0.179241
vt 0.999643 0.103689
vt 0.629022 0.860370
vt 0.556556 0.735356
vt 0.649800 0.740255
vt 0.336764 0.914524
vt 0.403092 0.854133
vt 0.450283 0.735356
vt 0.264398 0.932901
vt 0.410860 0.746579
vt 0.999643 0.000357
vt 0.829252 0.766975
vt 0.850029 0.887089
s 1
usemtl Material
f 35/1/1 43/2/2 14/3/3 38/4/4
f 21/5/5 7/6/6 8/7/7 22/8/8
f 26/9/9 8/10/10 7/11/11 27/12/12
f 28/13/13 12/14/14 11/15/15 29/16/16
f 24/17/17 4/18/18 6/19/19 27/20/12
f 34/21/20 23/22/21 10/23/22 29/24/16
f 36/25/23 42/26/24 44/27/25 37/28/26
f 14/29/3 33/30/27 38/31/4
f 28/32/13 9/33/28 2/34/29 25/35/30
f 30/36/31 18/37/32 17/38/33 31/39/34
f 32/40/35 16/41/36 15/42/37 33/43/27
f 32/44/35 13/45/38 4/46/18 24/47/17
f 23/48/21 5/49/39 42/26/24 36/25/23
f 1/50/40 21/51/5 3/52/41
f 25/53/30 2/54/29 18/37/32 30/36/31
f 36/55/23 41/56/42 10/57/22 23/58/21
f 21/5/5 1/59/40 7/6/6
f 26/60/9 5/61/39 23/62/21 34/63/20
f 3/64/41 21/65/5 12/66/43
f 12/66/43 21/65/5 22/67/8 11/68/44
f 19/69/45 16/70/45 1/71/40 3/72/41
f 37/73/26 35/74/1 39/75/46 40/76/47
f 8/10/10 26/9/9 34/77/20 22/78/20
f 3/79/48 25/80/30 30/81/31 19/82/49
f 16/41/36 32/40/35 24/83/17 1/84/50
f 13/45/38 32/44/35 33/30/27 14/29/3
f 19/82/49 30/81/31 31/85/34 20/86/51
f 12/14/14 28/13/13 25/87/30 3/88/48
f 22/89/20 34/90/20 29/16/16 11/15/15
f 1/91/50 24/92/17 27/12/12 7/11/11
f 9/33/28 28/32/13 29/24/16 10/23/22
f 5/61/39 26/60/9 27/20/12 6/19/19
f 15/93/52 16/70/45 19/69/45 20/94/52
f 4/95/18 13/96/38 43/2/2 44/97/25
f 9/98/28 41/56/42 40/99/47 2/100/29
f 18/101/32 39/75/46 17/102/33
f 31/85/34 33/43/27 15/42/37 20/86/51
f 10/57/22 41/56/42 9/98/28
f 40/99/47 41/56/42 36/55/23 37/103/26
f 40/76/47 39/75/46 18/101/32 2/104/29
f 17/102/33 39/75/46 35/74/1 38/105/4
f 44/97/25 43/2/2 35/1/1 37/106/26
f 44/27/25 42/26/24 6/107/19 4/108/18
f 14/3/3 43/2/2 13/96/38
f 42/26/24 5/49/39 6/107/19
f 38/31/4 33/30/27 31/39/34
f 31/39/34 17/38/33 38/31/4
o Cube.001
v -0.381737 -0.544128 -1.377570
v -0.201807 -1.013775 -1.084313
v -0.245669 -0.408417 -1.114571
v -0.075227 -0.877720 -0.792470
v -0.469126 -0.544650 -1.332088
v -0.289196 -1.014297 -1.038831
v -0.333058 -0.408939 -1.069089
v -0.162616 -0.878242 -0.746988
v -0.324360 -0.809401 -1.270370
v -0.123072 -0.608640 -0.881310
v -0.210460 -0.609162 -0.835828
v -0.411749 -0.809923 -1.224888
v -0.283324 -0.445973 -1.187351
v -0.169584 -0.971829 -0.974847
v -0.370712 -0.446495 -1.141869
v -0.256972 -0.972351 -0.929365
v -0.313335 -0.711767 -1.034670
v -0.225947 -0.711245 -1.080152
v -0.381737 -0.544128 1.377569
v -0.201807 -1.013775 1.084312
v -0.245669 -0.408417 1.114570
v -0.075227 -0.877720 0.792470
v -0.469126 -0.544650 1.332088
v -0.289196 -1.014297 1.038831
v -0.333058 -0.408939 1.069089
v -0.162616 -0.878242 0.746988
v -0.324360 -0.809401 1.270370
v -0.123072 -0.608640 0.881310
v -0.210460 -0.609162 0.835828
v -0.411749 -0.809923 1.224888
v -0.283324 -0.445973 1.187351
v -0.169584 -0.971829 0.974847
v -0.370713 -0.446495 1.141869
v -0.256972 -0.972351 0.929365
v -0.313335 -0.711767 1.034670
v -0.225947 -0.711245 1.080152
vn 0.1574 0.2874 -0.9448
vn 0.5172 -0.7356 -0.4375
vn 0.5756 0.7926 -0.2013
vn 0.8643 -0.3072 0.3983
vn -0.8668 0.2812 -0.4117
vn -0.5563 -0.8232 0.1135
vn -0.5025 0.7861 0.3598
vn -0.1667 -0.3133 0.9349
vn 0.3128 -0.4282 -0.8478
vn 0.8557 0.4574 0.2421
vn -0.2969 0.4505 0.8420
vn -0.8640 -0.4489 -0.2282
vn 0.4882 0.6465 -0.5862
vn 0.7498 -0.6593 -0.0560
vn -0.7663 0.6391 0.0667
vn -0.5103 -0.6610 0.5502
vn -0.8908 -0.0234 0.4537
vn 0.8908 0.0234 -0.4537
vn 0.1574 0.2874 0.9448
vn 0.5172 -0.7356 0.4375
vn 0.5756 0.7926 0.2013
vn 0.8643 -0.3072 -0.3983
vn -0.8668 0.2812 0.4117
vn -0.5563 -0.8232 -0.1135
vn -0.5025 0.7861 -0.3598
vn -0.1667 -0.3133 -0.9349
vn 0.3128 -0.4282 0.8478
vn 0.8557 0.4574 -0.2421
vn -0.2969 0.4505 -0.8420
vn -0.8640 -0.4489 0.2282
vn 0.4882 0.6465 0.5862
vn 0.7498 -0.6593 0.0560
vn -0.7663 0.6391 -0.0667
vn -0.5103 -0.6610 -0.5502
vn -0.8908 -0.0234 -0.4537
vn 0.8908 0.0234 0.4537
vt 0.901049 0.745324
vt 0.953636 0.745439
vt 0.949481 0.684291
vt 0.901316 0.684115
vt 0.388536 0.431199
vt 0.409563 0.431199
vt 0.409563 0.369861
vt 0.388536 0.369861
vt 0.898185 0.259546
vt 0.948494 0.259623
vt 0.923825 0.200021
vt 0.897951 0.198333
vt 0.410278 0.435121
vt 0.431292 0.434351
vt 0.433571 0.369861
vt 0.412558 0.370631
vt 0.459013 0.389101
vt 0.459013 0.439385
vt 0.480041 0.439385
vt 0.480041 0.389101
vt 0.458299 0.396953
vt 0.455272 0.371181
vt 0.434286 0.369861
vt 0.437312 0.395633
vt 0.412558 0.497363
vt 0.433571 0.496594
vt 0.898210 0.321860
vt 0.948456 0.321872
vt 0.388536 0.501838
vt 0.409563 0.501838
vt 0.901022 0.807638
vt 0.920245 0.807650
vt 0.850744 0.807638
vt 0.850744 0.745362
vt 0.878985 0.321872
vt 0.845597 0.259646
vt 0.455272 0.445070
vt 0.434286 0.443750
vt 0.459013 0.369861
vt 0.480041 0.369861
vt 0.849776 0.198488
vt 0.875445 0.685789
s 1
usemtl Material
f 62/109/70 54/110/62 48/111/56 58/112/66
f 54/113/62 55/114/63 52/115/60 48/116/56
f 61/117/69 56/118/64 50/119/58 60/120/68
f 56/121/64 53/122/61 46/123/54 50/124/58
f 57/125/65 45/126/53 49/127/57 59/128/67
f 60/129/68 50/130/58 46/131/54 58/132/66
f 49/133/57 45/134/53 53/122/61 56/121/64
f 59/135/67 49/136/57 56/118/64 61/117/69
f 47/137/55 51/138/59 55/114/63 54/113/62
f 57/139/65 47/140/55 54/110/62 62/109/70
f 45/141/53 57/139/65 62/109/70 53/142/61
f 51/143/59 59/135/67 61/117/69 55/144/63
f 52/145/60 60/129/68 58/132/66 48/146/56
f 47/147/55 57/125/65 59/128/67 51/148/59
f 55/144/63 61/117/69 60/120/68 52/149/60
f 53/142/61 62/109/70 58/112/66 46/150/54
f 80/109/88 76/112/84 66/111/74 72/110/80
f 72/113/80 66/116/74 70/115/78 73/114/81
f 79/117/87 78/120/86 68/119/76 74/118/82
f 74/121/82 68/124/76 64/123/72 71/122/79
f 75/125/83 77/128/85 67/127/75 63/126/71
f 78/129/86 76/132/84 64/131/72 68/130/76
f 67/133/75 74/121/82 71/122/79 63/134/71
f 77/135/85 79/117/87 74/118/82 67/136/75
f 65/137/73 72/113/80 73/114/81 69/138/77
f 75/139/83 80/109/88 72/110/80 65/140/73
f 63/141/71 71/142/79 80/109/88 75/139/83
f 69/143/77 73/144/81 79/117/87 77/135/85
f 70/145/78 66/146/74 76/132/84 78/129/86
f 65/147/73 69/148/77 77/128/85 75/125/83
f 73/144/81 70/149/78 78/120/86 79/117/87
f 71/142/79 64/150/72 76/112/84 80/109/88
